<svg width="255" height="254" viewBox="0 0 255 254" fill="none" xmlns="http://www.w3.org/2000/svg">
<path fill-rule="evenodd" clip-rule="evenodd" d="M118.5 1.981C86.627 8.398 62.761 24.883 47.528 51C39.84 64.18 32.664 83.298 24.066 113.5C18.829 131.899 12 161.351 12 165.542C12 166.97 10.682 175.195 9.071 183.819C4.744 206.986 1 233.693 1 241.389C1 247.533 1.268 248.422 3.923 251.077C5.643 252.797 7.908 254 9.426 254C10.844 254 23.141 252.214 36.752 250.031C50.364 247.848 67.35 245.136 74.5 244.006C119.809 236.842 150.364 229.036 183 216.287C197.737 210.53 207.318 205.258 216.573 197.812C249.727 171.142 263.702 117.822 248.608 75.59C245.075 65.706 237.393 51 235.763 51C235.278 51 235.143 50.578 235.462 50.061C235.781 49.545 235.469 48.758 234.769 48.311C234.069 47.865 232.85 46.246 232.06 44.713C229.183 39.135 215.78 25.98 206.966 20.085C192.396 10.339 178.49 4.498 162.75 1.512C151.733 -0.577997 130.067 -0.347998 118.5 1.981Z" fill="#EDA449"/>
<path fill-rule="evenodd" clip-rule="evenodd" d="M118.5 1.981C80.351 9.662 54.457 31.12 39.438 67.5C28.47 94.067 14.816 144.067 11.174 171C10.616 175.125 9.051 184.8 7.696 192.5C6.342 200.2 4.683 210.1 4.011 214.5C3.339 218.9 2.599 223.625 2.365 225C2.131 226.375 1.664 232.097 1.328 237.716L0.716003 247.932L3.964 250.966C7.475 254.246 9.762 254.599 17.701 253.085C20.34 252.581 27 251.467 32.5 250.609C111.716 238.25 127.652 235.011 158.5 224.999C188.304 215.325 203.849 208.048 216.573 197.812C249.727 171.142 263.702 117.822 248.608 75.59C245.075 65.706 237.393 51 235.763 51C235.278 51 235.143 50.578 235.462 50.061C235.781 49.545 235.469 48.758 234.769 48.311C234.069 47.865 232.85 46.246 232.06 44.713C229.183 39.135 215.78 25.98 206.966 20.085C192.396 10.339 178.49 4.498 162.75 1.512C151.733 -0.577997 130.067 -0.347998 118.5 1.981Z" fill="#FF9966"/>
<path fill-rule="evenodd" clip-rule="evenodd" d="M118.5 1.981C80.351 9.662 54.457 31.12 39.438 67.5C28.45 94.114 14.73 144.387 11.191 171C10.642 175.125 8.826 186.375 7.155 196C3.366 217.818 1 235.791 1 242.754C1 247.063 1.465 248.556 3.414 250.505C4.742 251.832 6.879 253.178 8.164 253.494C9.449 253.81 21.75 252.286 35.5 250.105C49.25 247.925 66.575 245.198 74 244.045C118.943 237.067 150.154 229.118 183 216.287C197.737 210.53 207.318 205.258 216.573 197.812C249.727 171.142 263.702 117.822 248.608 75.59C245.075 65.706 237.393 51 235.763 51C235.278 51 235.143 50.578 235.462 50.061C235.781 49.545 235.469 48.758 234.769 48.311C234.069 47.865 232.85 46.246 232.06 44.713C229.183 39.135 215.78 25.98 206.966 20.085C192.396 10.339 178.49 4.498 162.75 1.512C151.733 -0.577997 130.067 -0.347998 118.5 1.981Z" fill="#FF8E42"/>
<path fill-rule="evenodd" clip-rule="evenodd" d="M125.52 1.05001C99.334 5.14801 77.125 16.297 61.478 33.198C53.954 41.324 48.635 49.407 42.94 61.37C37.8 72.166 27.683 100.678 28.515 102.024C28.788 102.467 28.631 102.98 28.164 103.165C27.202 103.545 21.26 124.266 17.6 140C11.873 164.626 1 231.463 1 242.042C1 247.457 3.267 251.549 6.985 252.845C10.045 253.912 20.525 252.522 70 244.488C78.525 243.103 88.425 241.507 92 240.94C110.291 238.04 154.145 226.918 154.815 225.009C154.988 224.516 155.712 224.336 156.425 224.609C158.093 225.249 182.792 216.17 194.623 210.567C199.64 208.191 206.615 204.306 210.123 201.933C218.168 196.49 232.303 182.233 231.564 180.307C231.267 179.531 231.422 179.143 231.91 179.444C232.989 180.111 237.66 172.961 242.335 163.483C246.235 155.579 251.317 139.755 253.089 130C254.608 121.634 254.608 101.295 253.088 93.234C249.172 72.469 237.566 50.218 222 33.636C215.213 26.406 202.376 16.65 200.872 17.579C200.392 17.876 200 17.614 200 16.998C200 15.105 180.074 6.257 169.5 3.455C161.517 1.34 156.676 0.736005 145.5 0.460005C137.8 0.269005 128.809 0.535005 125.52 1.05001Z" fill="#F77E3F"/>
<path fill-rule="evenodd" clip-rule="evenodd" d="M127.221 0.998999C86.832 6.698 57.39 28.675 41.365 65.089C37.089 74.805 27.896 100.414 28.182 101.812C28.26 102.191 27.765 103.85 27.083 105.5C25.173 110.121 16.412 145.177 14.087 157.5C7.721 191.237 2.455 224.798 1.373 238.519C0.764997 246.221 0.847997 246.666 3.459 249.769C5.774 252.52 6.839 253 10.635 253C14.98 253 40.291 249.309 68.5 244.561C76.2 243.265 84.75 241.903 87.5 241.534C103.163 239.433 154.132 226.851 154.835 224.913C155.02 224.404 155.544 224.218 156.001 224.5C157.103 225.182 177.994 217.836 190.344 212.425C201.376 207.592 213.049 200.407 212.718 198.653C212.598 198.019 213.221 197.617 214.103 197.76C216.188 198.098 232.333 181.347 231.39 179.822C231.006 179.2 231.123 178.958 231.651 179.285C234.371 180.965 246.315 156.492 250.58 140.5C254.142 127.141 255.03 105.791 252.568 92.688C248.497 71.021 236.572 48.621 220.503 32.455C214.26 26.174 201 16.008 201 17.502C201 17.819 200.039 17.183 198.865 16.088C195.553 13.003 179.045 6.153 168.249 3.384C157.315 0.579999 138.107 -0.537001 127.221 0.998999Z" fill="#EF6A35"/>
<path fill-rule="evenodd" clip-rule="evenodd" d="M128.5 1.12801C124.65 1.60901 117.002 3.15101 111.503 4.55401C100.51 7.36101 82.476 15.344 83.476 16.961C83.827 17.528 83.502 17.746 82.741 17.454C79.861 16.349 61.781 32.054 62.676 34.882C63.082 36.163 62.985 36.215 62.212 35.132C60.58 32.845 51.756 45.008 44.533 59.5C39.131 70.338 30.372 93.232 28.506 101.391C28.24 102.551 26.464 108.81 24.558 115.3C15.491 146.175 2.078 219.142 1.666 239.828C1.507 247.804 1.61899 248.258 4.30599 250.578C8.06999 253.827 10.089 253.74 39.622 249.047C86.736 241.56 96.484 239.903 107.975 237.429C120.596 234.712 148.027 227.712 152 226.194C153.375 225.669 154.725 225.194 155 225.138C156.991 224.733 177.002 217.639 183.5 215.035C193.902 210.866 207.702 203.636 211.5 200.365C213.15 198.943 213.868 198.124 213.095 198.545C212.156 199.056 211.93 198.922 212.415 198.138C212.813 197.494 213.611 197.26 214.189 197.617C215.243 198.268 232.567 181.233 231.716 180.382C231.467 180.134 232.447 178.662 233.895 177.112C240.323 170.231 249.707 146.428 252.642 129.558C254.725 117.588 254.033 97.593 251.162 86.813C244.088 60.256 226.906 34.823 206.82 21.179C204.246 19.431 201.658 18 201.07 18C200.481 18 200 17.628 200 17.173C200 15.711 180.79 7.15201 171.627 4.53101C157.085 0.372007 143.273 -0.717992 128.5 1.12801Z" fill="#EA6032"/>
<path fill-rule="evenodd" clip-rule="evenodd" d="M131.345 1.09C116.839 2.387 99.263 7.467 87.925 13.638C85.248 15.094 83.34 16.741 83.684 17.297C84.038 17.871 83.812 18.002 83.163 17.601C80.607 16.021 61.707 31.867 62.646 34.803C63.045 36.051 62.942 36.156 62.255 35.201C61.55 34.221 60.458 34.957 57.804 38.201C53.268 43.745 48.056 51.937 44.254 59.5C40.889 66.194 32.032 89.53 29.639 98.004C28.786 101.027 26.692 108.225 24.986 114C17.46 139.476 6.935 193.689 2.423 230.216C0.550995 245.373 1.05399 248.679 5.69299 251.718C8.81299 253.763 12.479 253.394 52.5 247.01C100.352 239.376 138.399 231.228 154 225.272C154.825 224.957 156.278 224.546 157.229 224.359C160.642 223.687 186.074 214.026 193.708 210.501C200.955 207.155 214 199.326 214 198.324C214 198.081 213.48 198.203 212.845 198.595C212.124 199.041 211.963 198.869 212.415 198.138C212.813 197.494 213.59 197.247 214.142 197.588C215.171 198.224 232.501 181.168 231.67 180.337C231.417 180.084 232.251 178.753 233.524 177.379C237.192 173.422 243.667 160.162 247.445 148.871C259.2 113.74 254.843 81.031 234.294 50.148C211.488 15.873 172.704 -2.609 131.345 1.09Z" fill="#E8572E"/>
<path fill-rule="evenodd" clip-rule="evenodd" d="M121 2.54399C106.726 5.14099 82.161 14.834 83.67 17.274C84.021 17.843 83.845 18.022 83.279 17.672C80.818 16.152 61.733 31.962 62.635 34.773C63.044 36.048 62.942 36.157 62.247 35.189C61.546 34.212 59.901 35.742 55.795 41.189C48.668 50.644 45.173 56.997 39.672 70.5C25.333 105.694 13.118 156.399 4.138 218C0.866999 240.44 0.697999 244.016 2.722 247.989C6.045 254.51 5.224 254.535 56 246.378C109.483 237.786 134.586 231.942 169.673 219.913C189.901 212.978 206.228 205.024 211.43 199.571C213.042 197.882 213.964 197.165 213.48 197.978C211.912 200.613 222.707 190.976 226.915 185.986C229.162 183.321 231 180.908 231 180.622C231 180.337 232.013 179.008 233.25 177.67C239.191 171.246 247.813 150.742 251.648 133.915C254.341 122.103 254.069 98.968 251.103 87.567C246.856 71.241 240.312 57.909 229.484 43.522C214.447 23.542 189.727 8.24299 164.016 3.00299C152.379 0.631994 132.667 0.420993 121 2.54399Z" fill="#E24A2B"/>
</svg>
